<svg viewBox="0 0 64 64" xmlns="http://www.w3.org/2000/svg">
  <defs>
    <!-- Intense energy glow -->
    <radialGradient id="darkMatterGlow" cx="50%" cy="50%" r="50%">
      <stop offset="0%" style="stop-color:#ff6644;stop-opacity:0.9" />
      <stop offset="40%" style="stop-color:#ff4422;stop-opacity:0.6" />
      <stop offset="100%" style="stop-color:#cc2200;stop-opacity:0" />
    </radialGradient>
    
    <!-- Core gradient -->
    <radialGradient id="darkMatterCore" cx="40%" cy="40%" r="60%">
      <stop offset="0%" style="stop-color:#ffaa88;stop-opacity:1" />
      <stop offset="30%" style="stop-color:#ff6644;stop-opacity:1" />
      <stop offset="70%" style="stop-color:#cc3322;stop-opacity:1" />
      <stop offset="100%" style="stop-color:#991100;stop-opacity:1" />
    </radialGradient>
    
    <!-- Energy pulse -->
    <radialGradient id="darkMatterPulse" cx="50%" cy="50%" r="50%">
      <stop offset="0%" style="stop-color:#ffcc66;stop-opacity:1" />
      <stop offset="50%" style="stop-color:#ff8844;stop-opacity:0.8" />
      <stop offset="100%" style="stop-color:#ff4422;stop-opacity:0" />
    </radialGradient>
    
    <!-- Inner glow -->
    <radialGradient id="darkMatterInner" cx="50%" cy="50%" r="50%">
      <stop offset="0%" style="stop-color:#ffffff;stop-opacity:0.6" />
      <stop offset="30%" style="stop-color:#ffdd88;stop-opacity:0.4" />
      <stop offset="100%" style="stop-color:#ff6644;stop-opacity:0" />
    </radialGradient>
  </defs>
  
  <!-- Outer energy glow (pulsing effect) -->
  <ellipse cx="32" cy="32" rx="30" ry="30" fill="url(#darkMatterGlow)" opacity="0.8" />
  
  <!-- Secondary pulse ring -->
  <ellipse cx="32" cy="32" rx="24" ry="24" fill="url(#darkMatterPulse)" opacity="0.6" />
  
  <!-- Main crystal structure - sharp geometric core -->
  <!-- Large central diamond -->
  <path d="M 32 8 L 48 32 L 32 56 L 16 32 Z" fill="url(#darkMatterCore)" />
  
  <!-- Top crystal point -->
  <path d="M 32 4 L 38 12 L 32 16 L 26 12 Z" fill="#ff8844" />
  
  <!-- Bottom crystal point -->
  <path d="M 32 60 L 38 52 L 32 48 L 26 52 Z" fill="#cc2200" />
  
  <!-- Left crystal face -->
  <path d="M 16 32 L 20 28 L 26 32 L 20 36 Z" fill="#dd3322" />
  
  <!-- Right crystal face -->
  <path d="M 48 32 L 44 28 L 38 32 L 44 36 Z" fill="#dd3322" />
  
  <!-- Crystal facets (geometric internal structure) -->
  <path d="M 32 16 L 40 32 L 32 40 L 24 32 Z" fill="#ffaa66" opacity="0.4" />
  <path d="M 32 20 L 36 32 L 32 36 L 28 32 Z" fill="#ffcc88" opacity="0.5" />
  
  <!-- Top facet reflections -->
  <path d="M 32 12 L 42 32 L 32 24 Z" fill="#ff9955" opacity="0.3" />
  <path d="M 32 12 L 22 32 L 32 24 Z" fill="#ff7733" opacity="0.3" />
  
  <!-- Bottom facet shadows -->
  <path d="M 32 52 L 42 32 L 32 40 Z" fill="#992200" opacity="0.4" />
  <path d="M 32 52 L 22 32 L 32 40 Z" fill="#881100" opacity="0.4" />
  
  <!-- Intense inner glow (core energy) -->
  <ellipse cx="32" cy="32" rx="12" ry="12" fill="url(#darkMatterInner)" />
  
  <!-- Bright center point -->
  <ellipse cx="32" cy="32" rx="6" ry="6" fill="#ffffff" opacity="0.8" />
  <ellipse cx="32" cy="32" rx="3" ry="3" fill="#ffffff" opacity="1" />
  
  <!-- Sharp crystal edges -->
  <line x1="32" y1="8" x2="48" y2="32" stroke="#ff4422" stroke-width="1" opacity="0.6" />
  <line x1="32" y1="8" x2="16" y2="32" stroke="#ff4422" stroke-width="1" opacity="0.6" />
  <line x1="16" y1="32" x2="32" y2="56" stroke="#aa1100" stroke-width="1" opacity="0.6" />
  <line x1="48" y1="32" x2="32" y2="56" stroke="#aa1100" stroke-width="1" opacity="0.6" />
  
  <!-- Energy particles floating around -->
  <circle cx="42" cy="20" r="1.5" fill="#ffcc66" opacity="0.8">
    <animate attributeName="opacity" values="0.4;0.9;0.4" dur="2s" repeatCount="indefinite" />
  </circle>
  <circle cx="22" cy="44" r="1.5" fill="#ff8844" opacity="0.8">
    <animate attributeName="opacity" values="0.5;1;0.5" dur="2.3s" repeatCount="indefinite" />
  </circle>
  <circle cx="45" cy="45" r="1" fill="#ffaa66" opacity="0.7">
    <animate attributeName="opacity" values="0.3;0.8;0.3" dur="1.8s" repeatCount="indefinite" />
  </circle>
  <circle cx="19" cy="19" r="1" fill="#ff6644" opacity="0.7">
    <animate attributeName="opacity" values="0.4;0.9;0.4" dur="2.1s" repeatCount="indefinite" />
  </circle>
  
  <!-- Highlight spikes -->
  <path d="M 32 10 L 33 14 L 32 15 L 31 14 Z" fill="#ffffff" opacity="0.9" />
  <path d="M 46 32 L 42 33 L 41 32 L 42 31 Z" fill="#ffddaa" opacity="0.8" />
  <path d="M 18 32 L 22 33 L 23 32 L 22 31 Z" fill="#ffddaa" opacity="0.8" />
</svg>