<svg viewBox="0 0 48 48" xmlns="http://www.w3.org/2000/svg">
  <defs>
    <!-- Brilliant golden glow -->
    <radialGradient id="goldGlow" cx="50%" cy="50%" r="50%">
      <stop offset="0%" style="stop-color:#FFE700;stop-opacity:0.7" />
      <stop offset="100%" style="stop-color:#FFD700;stop-opacity:0" />
    </radialGradient>
    
    <!-- Rich gold gradient -->
    <radialGradient id="goldMetal" cx="35%" cy="35%" r="65%">
      <stop offset="0%" style="stop-color:#FFF700;stop-opacity:1" />
      <stop offset="50%" style="stop-color:#FFD700;stop-opacity:1" />
      <stop offset="100%" style="stop-color:#DAA520;stop-opacity:1" />
    </radialGradient>
    
    <!-- Dark gold -->
    <radialGradient id="goldDark" cx="40%" cy="40%" r="60%">
      <stop offset="0%" style="stop-color:#E5C100;stop-opacity:1" />
      <stop offset="100%" style="stop-color:#B8860B;stop-opacity:1" />
    </radialGradient>
    
    <!-- Bright shine -->
    <radialGradient id="goldShine" cx="30%" cy="30%" r="40%">
      <stop offset="0%" style="stop-color:#FFFFAA;stop-opacity:1" />
      <stop offset="100%" style="stop-color:#FFD700;stop-opacity:0" />
    </radialGradient>
  </defs>
  
  <!-- Strong golden glow -->
  <ellipse cx="24" cy="24" rx="24" ry="24" fill="url(#goldGlow)" />
  
  <!-- Main gold nuggets - varied lumpy shapes -->
  <!-- Large center nugget -->
  <ellipse cx="24" cy="26" rx="13" ry="14" fill="url(#goldMetal)" />
  
  <!-- Top-left nugget -->
  <ellipse cx="17" cy="16" rx="9" ry="10" fill="url(#goldMetal)" />
  
  <!-- Top-right nugget -->
  <ellipse cx="30" cy="15" rx="8" ry="9" fill="url(#goldDark)" />
  
  <!-- Bottom-left nugget -->
  <ellipse cx="14" cy="30" rx="7" ry="8" fill="url(#goldDark)" />
  
  <!-- Bottom-right nugget -->
  <ellipse cx="32" cy="33" rx="8" ry="7" fill="#DAA520" />
  
  <!-- Right nugget -->
  <ellipse cx="36" cy="23" rx="6" ry="6" fill="#C4A520" />
  
  <!-- Small accent nuggets -->
  <ellipse cx="22" cy="11" rx="5" ry="5" fill="#E5C100" />
  <ellipse cx="11" cy="24" rx="4" ry="5" fill="#B8860B" />
  
  <!-- Brilliant shine spots -->
  <ellipse cx="20" cy="18" rx="6" ry="6" fill="url(#goldShine)" opacity="0.9" />
  <ellipse cx="26" cy="26" rx="5" ry="5" fill="url(#goldShine)" opacity="0.8" />
  <ellipse cx="30" cy="16" rx="3" ry="3" fill="url(#goldShine)" opacity="0.7" />
  
  <!-- Ultra-bright highlights (gold gleam) -->
  <ellipse cx="22" cy="16" rx="2.5" ry="2.5" fill="#FFFFFF" opacity="0.9" />
  <ellipse cx="28" cy="24" rx="2" ry="2" fill="#FFFFEE" opacity="0.8" />
  <ellipse cx="17" cy="17" rx="2" ry="2" fill="#FFFFDD" opacity="0.8" />
  <ellipse cx="32" cy="15" rx="1.5" ry="1.5" fill="#FFFFCC" opacity="0.7" />
  
  <!-- Dark crevices between nuggets -->
  <ellipse cx="22" cy="24" rx="2" ry="2" fill="#886600" opacity="0.7" />
  <ellipse cx="28" cy="30" rx="2" ry="2" fill="#886600" opacity="0.7" />
  <ellipse cx="18" cy="28" rx="1.5" ry="1.5" fill="#775500" opacity="0.6" />
</svg>