<svg viewBox="0 0 200 200" xmlns="http://www.w3.org/2000/svg">
  <defs>
    <linearGradient id="iconGradient" x1="0%" y1="0%" x2="100%" y2="100%">
      <stop offset="0%" style="stop-color:#6dd5ff;stop-opacity:1" />
      <stop offset="100%" style="stop-color:#2a7fbf;stop-opacity:1" />
    </linearGradient>
    
    <filter id="iconGlow">
      <feGaussianBlur stdDeviation="4" result="coloredBlur"/>
      <feMerge>
        <feMergeNode in="coloredBlur"/>
        <feMergeNode in="SourceGraphic"/>
      </feMerge>
    </filter>
  </defs>
  
  <!-- Circular background -->
  <circle cx="100" cy="100" r="90" fill="none" stroke="#2a7fbf" stroke-width="3" opacity="0.3"/>
  <circle cx="100" cy="100" r="75" fill="none" stroke="#4db8ff" stroke-width="2" opacity="0.4"/>
  
  <!-- Simplified pod icon -->
  <g filter="url(#iconGlow)">
    <!-- Pod body -->
    <ellipse cx="100" cy="80" rx="25" ry="35" fill="url(#iconGradient)"/>
    
    <!-- Window -->
    <ellipse cx="100" cy="75" rx="12" ry="15" fill="#1a3d5c"/>
    <circle cx="97" cy="72" r="5" fill="#6dd5ff" opacity="0.8"/>
    
    <!-- Thruster -->
    <rect x="90" y="115" width="20" height="8" rx="2" fill="#2a7fbf"/>
    
    <!-- Flame -->
    <ellipse cx="100" cy="135" rx="12" ry="18" fill="#ff9d3a" opacity="0.8"/>
    <ellipse cx="100" cy="138" rx="8" ry="12" fill="#ffdd57" opacity="0.9"/>
  </g>
  
  <!-- Orbital lines -->
  <path d="M 100 20 Q 140 60 100 100" fill="none" stroke="#4db8ff" stroke-width="1.5" opacity="0.3" stroke-dasharray="5,5"/>
  <path d="M 100 20 Q 60 60 100 100" fill="none" stroke="#4db8ff" stroke-width="1.5" opacity="0.3" stroke-dasharray="5,5"/>
  
  <!-- Corner accents -->
  <polyline points="30,30 25,25 30,20" fill="none" stroke="#4db8ff" stroke-width="2" opacity="0.5"/>
  <polyline points="170,30 175,25 170,20" fill="none" stroke="#4db8ff" stroke-width="2" opacity="0.5"/>
  <polyline points="30,170 25,175 30,180" fill="none" stroke="#4db8ff" stroke-width="2" opacity="0.5"/>
  <polyline points="170,170 175,175 170,180" fill="none" stroke="#4db8ff" stroke-width="2" opacity="0.5"/>
</svg>