<svg viewBox="0 0 48 48" xmlns="http://www.w3.org/2000/svg">
  <defs>
    <!-- Warm metallic glow -->
    <radialGradient id="copperGlow" cx="50%" cy="50%" r="50%">
      <stop offset="0%" style="stop-color:#d4854e;stop-opacity:0.6" />
      <stop offset="100%" style="stop-color:#c4754e;stop-opacity:0" />
    </radialGradient>
    
    <!-- Copper gradient -->
    <radialGradient id="copperMetal" cx="35%" cy="35%" r="65%">
      <stop offset="0%" style="stop-color:#e4956e;stop-opacity:1" />
      <stop offset="50%" style="stop-color:#c4754e;stop-opacity:1" />
      <stop offset="100%" style="stop-color:#a4553e;stop-opacity:1" />
    </radialGradient>
    
    <!-- Dark copper -->
    <radialGradient id="copperDark" cx="40%" cy="40%" r="60%">
      <stop offset="0%" style="stop-color:#b4654e;stop-opacity:1" />
      <stop offset="100%" style="stop-color:#94453e;stop-opacity:1" />
    </radialGradient>
    
    <!-- Warm shine -->
    <radialGradient id="copperShine" cx="30%" cy="30%" r="40%">
      <stop offset="0%" style="stop-color:#f4a57e;stop-opacity:1" />
      <stop offset="100%" style="stop-color:#c4754e;stop-opacity:0" />
    </radialGradient>
  </defs>
  
  <!-- Warm glow background -->
  <ellipse cx="24" cy="24" rx="24" ry="24" fill="url(#copperGlow)" />
  
  <!-- Main copper chunks - rounder than iron -->
  <!-- Bottom-right large chunk -->
  <ellipse cx="28" cy="30" rx="12" ry="13" fill="url(#copperDark)" />
  
  <!-- Top-left chunk -->
  <ellipse cx="18" cy="17" rx="10" ry="11" fill="url(#copperMetal)" />
  
  <!-- Center chunk -->
  <ellipse cx="24" cy="24" rx="11" ry="10" fill="url(#copperMetal)" />
  
  <!-- Top chunk -->
  <ellipse cx="26" cy="13" rx="7" ry="7" fill="#b4654e" />
  
  <!-- Bottom-left chunk -->
  <ellipse cx="15" cy="32" rx="7" ry="8" fill="#a4553e" />
  
  <!-- Right chunk -->
  <ellipse cx="35" cy="24" rx="6" ry="7" fill="#94453e" />
  
  <!-- Small accent pieces -->
  <ellipse cx="22" cy="36" rx="5" ry="5" fill="#84353e" />
  <ellipse cx="12" cy="22" rx="5" ry="5" fill="#a4553e" />
  
  <!-- Warm metallic shine -->
  <ellipse cx="20" cy="16" rx="5" ry="5" fill="url(#copperShine)" opacity="0.9" />
  <ellipse cx="26" cy="26" rx="4" ry="4" fill="url(#copperShine)" opacity="0.7" />
  
  <!-- Bright copper highlights -->
  <ellipse cx="22" cy="15" rx="2" ry="2" fill="#ffb58e" opacity="0.9" />
  <ellipse cx="28" cy="22" rx="2" ry="2" fill="#f4a57e" opacity="0.8" />
  <ellipse cx="16" cy="18" rx="2" ry="2" fill="#e4956e" opacity="0.7" />
  
  <!-- Dark crevices -->
  <ellipse cx="22" cy="25" rx="2" ry="2" fill="#74252e" opacity="0.8" />
  <ellipse cx="28" cy="32" rx="2" ry="2" fill="#74252e" opacity="0.8" />
  <ellipse cx="18" cy="30" rx="2" ry="2" fill="#64151e" opacity="0.7" />
</svg>