<svg viewBox="0 0 48 48" xmlns="http://www.w3.org/2000/svg">
  <defs>
    <!-- Crystal glow -->
    <radialGradient id="siliconGlow" cx="50%" cy="50%" r="50%">
      <stop offset="0%" style="stop-color:#babbcc;stop-opacity:0.5" />
      <stop offset="100%" style="stop-color:#9a9aaa;stop-opacity:0" />
    </radialGradient>
    
    <!-- Crystal gradient -->
    <linearGradient id="siliconCrystal" x1="0%" y1="0%" x2="100%" y2="100%">
      <stop offset="0%" style="stop-color:#cacadd;stop-opacity:1" />
      <stop offset="50%" style="stop-color:#9a9aaa;stop-opacity:1" />
      <stop offset="100%" style="stop-color:#7a7a88;stop-opacity:1" />
    </linearGradient>
    
    <!-- Dark crystal -->
    <linearGradient id="siliconDark" x1="0%" y1="0%" x2="100%" y2="100%">
      <stop offset="0%" style="stop-color:#8a8a99;stop-opacity:1" />
      <stop offset="100%" style="stop-color:#6a6a77;stop-opacity:1" />
    </linearGradient>
    
    <!-- Crystal shine -->
    <radialGradient id="siliconShine" cx="30%" cy="30%" r="40%">
      <stop offset="0%" style="stop-color:#eaeaff;stop-opacity:0.9" />
      <stop offset="100%" style="stop-color:#9a9aaa;stop-opacity:0" />
    </radialGradient>
  </defs>
  
  <!-- Crystal glow -->
  <ellipse cx="24" cy="24" rx="24" ry="24" fill="url(#siliconGlow)" />
  
  <!-- Main crystal cluster - angular sharp shapes -->
  <!-- Large central crystal -->
  <path d="M 24 10 L 32 22 L 28 36 L 20 36 L 16 22 Z" fill="url(#siliconCrystal)" />
  
  <!-- Left crystal shard -->
  <path d="M 12 20 L 18 16 L 20 28 L 14 30 Z" fill="url(#siliconDark)" />
  
  <!-- Right crystal shard -->
  <path d="M 36 18 L 30 14 L 32 26 L 38 24 Z" fill="url(#siliconDark)" />
  
  <!-- Top-left small crystal -->
  <path d="M 16 12 L 20 10 L 22 16 L 18 18 Z" fill="#aaaabb" />
  
  <!-- Top-right small crystal -->
  <path d="M 32 10 L 28 8 L 26 14 L 30 16 Z" fill="#aaaabb" />
  
  <!-- Bottom crystal points -->
  <path d="M 24 36 L 28 42 L 20 42 Z" fill="#7a7a88" />
  <path d="M 16 32 L 12 38 L 18 36 Z" fill="#8a8a99" />
  <path d="M 32 32 L 36 38 L 30 36 Z" fill="#8a8a99" />
  
  <!-- Crystal facets (internal reflections) -->
  <path d="M 24 14 L 28 22 L 24 24 L 20 22 Z" fill="#babbcc" opacity="0.6" />
  <path d="M 20 24 L 24 30 L 20 34 Z" fill="#8a8a99" opacity="0.5" />
  <path d="M 28 24 L 24 30 L 28 34 Z" fill="#7a7a88" opacity="0.5" />
  
  <!-- Bright crystal shine -->
  <ellipse cx="24" cy="18" rx="4" ry="5" fill="url(#siliconShine)" opacity="0.9" />
  <ellipse cx="20" cy="22" rx="3" ry="3" fill="url(#siliconShine)" opacity="0.7" />
  
  <!-- Sharp highlight edges (crystal gleam) -->
  <path d="M 24 12 L 26 14 L 24 16 L 22 14 Z" fill="#ffffff" opacity="0.8" />
  <path d="M 28 20 L 30 22 L 28 24 Z" fill="#eaeaff" opacity="0.7" />
  <path d="M 20 20 L 18 22 L 20 24 Z" fill="#eaeaff" opacity="0.7" />
  
  <!-- Dark crystal edges -->
  <line x1="24" y1="10" x2="32" y2="22" stroke="#5a5a66" stroke-width="0.5" opacity="0.8" />
  <line x1="24" y1="10" x2="16" y2="22" stroke="#5a5a66" stroke-width="0.5" opacity="0.8" />
  <line x1="16" y1="22" x2="20" y2="36" stroke="#5a5a66" stroke-width="0.5" opacity="0.8" />
  <line x1="32" y1="22" x2="28" y2="36" stroke="#5a5a66" stroke-width="0.5" opacity="0.8" />
  <line x1="20" y1="36" x2="28" y2="36" stroke="#5a5a66" stroke-width="0.5" opacity="0.8" />
</svg>